<?xml version="1.0" standalone="no"?><!DOCTYPE svg PUBLIC "-//W3C//DTD SVG 1.1//EN" "http://www.w3.org/Graphics/SVG/1.1/DTD/svg11.dtd"><svg t="1592793264577" class="icon" viewBox="0 0 1024 1024" version="1.1" xmlns="http://www.w3.org/2000/svg" p-id="2952" xmlns:xlink="http://www.w3.org/1999/xlink" width="16" height="16"><defs><style type="text/css">@font-face { font-family: element-icons; src: url("chrome-extension://moombeodfomdpjnpocobemoiaemednkg/fonts/element-icons.woff") format("woff"), url("chrome-extension://moombeodfomdpjnpocobemoiaemednkg/fonts/element-icons.ttf ") format("truetype"); }
</style></defs><path d="M0.000039 614.280023h1023.90002v51.190002H0.000039z" fill="#C2C2C2" p-id="2953"></path><path d="M307.140051 358.330014h51.190002v614.280023H307.140051zM665.470064 358.330014h51.190002v614.280023h-51.190002z" fill="#C2C2C2" p-id="2954"></path><path d="M537.49506 179.165007h76.785002v51.190002h-76.785002V307.140012h-51.190002v-76.785003h-76.785003V179.165007h76.785003v-76.785003h51.190002V179.165007z" fill="#000" p-id="2955"></path><path d="M153.570045 0h716.760008c84.783441 0 153.570006 68.786565 153.570006 153.570006v716.760008c0 84.783441-68.786565 153.570006-153.570006 153.570006H153.570045C68.786604 1023.90002 0.000039 955.113454 0.000039 870.330014V153.570006C0.000039 68.786565 68.686624 0 153.570045 0z m0 51.190002C96.981097 51.190002 51.190041 96.981058 51.190041 153.570006v716.760008c0 56.588947 45.791056 102.380004 102.380004 102.380004h716.760008c56.588947 0 102.380004-45.791056 102.380004-102.380004V153.570006C972.610076 96.981058 926.81902 51.190002 870.230072 51.190002H153.570045z" fill="#C2C2C2" p-id="2956"></path><path d="M0.000039 409.520016h1023.90002v-255.95001c0-84.783441-68.786565-153.570006-153.570006-153.570006H153.570045C68.686624 0 0.000039 68.786565 0.000039 153.570006v255.95001zM51.190041 358.330014V153.570006C51.190041 96.981058 96.981097 51.190002 153.570045 51.190002h716.760008c56.588947 0 102.380004 45.791056 102.380004 102.380004v204.760008H51.190041z" fill="#000" p-id="2957"></path></svg>
