<?xml version="1.0" standalone="no"?><!DOCTYPE svg PUBLIC "-//W3C//DTD SVG 1.1//EN" "http://www.w3.org/Graphics/SVG/1.1/DTD/svg11.dtd"><svg t="1592793258742" class="icon" viewBox="0 0 1024 1024" version="1.1" xmlns="http://www.w3.org/2000/svg" p-id="2814" xmlns:xlink="http://www.w3.org/1999/xlink" width="16" height="16"><defs><style type="text/css">@font-face { font-family: element-icons; src: url("chrome-extension://moombeodfomdpjnpocobemoiaemednkg/fonts/element-icons.woff") format("woff"), url("chrome-extension://moombeodfomdpjnpocobemoiaemednkg/fonts/element-icons.ttf ") format("truetype"); }
</style></defs><path d="M0.6 308.1h612.8v51.1H0.6zM0.6 665.5h612.8v51.1H0.6z" fill="#C2C2C2" p-id="2815"></path><path d="M307 52.7h51.1v919.2H307z" fill="#C2C2C2" p-id="2816"></path><path d="M792.2 486.8v-76.6h51.1v76.6h76.6v51.1h-76.6v76.6h-51.1v-76.6h-76.6v-51.1h76.6z" fill="#000" p-id="2817"></path><path d="M153.8 1.6h715c84.6 0 153.2 68.6 153.2 153.2v715c0 84.6-68.6 153.2-153.2 153.2h-715C69.2 1023 0.6 954.4 0.6 869.8v-715C0.6 70.2 69.2 1.6 153.8 1.6z m0 51.1c-56.4 0-102.1 45.7-102.1 102.1v715c0 56.4 45.7 102.1 102.1 102.1h715c56.4 0 102.1-45.7 102.1-102.1v-715c0-56.4-45.7-102.1-102.1-102.1h-715z" fill="#C2C2C2" p-id="2818"></path><path d="M613.4 1023V1.6h255.3c84.6 0 153.2 68.6 153.2 153.2v715c0 84.6-68.6 153.2-153.2 153.2H613.4z m51.1-51.1h204.3c56.4 0 102.1-45.7 102.1-102.1v-715c0-56.4-45.7-102.1-102.1-102.1H664.5v919.2z" fill="#000" p-id="2819"></path></svg>
