<?xml version="1.0" standalone="no"?><!DOCTYPE svg PUBLIC "-//W3C//DTD SVG 1.1//EN" "http://www.w3.org/Graphics/SVG/1.1/DTD/svg11.dtd"><svg t="1592793148454" class="icon" viewBox="0 0 1025 1024" version="1.1" xmlns="http://www.w3.org/2000/svg" p-id="2308" xmlns:xlink="http://www.w3.org/1999/xlink" width="64.0625" height="64"><defs><style type="text/css">@font-face { font-family: element-icons; src: url("chrome-extension://moombeodfomdpjnpocobemoiaemednkg/fonts/element-icons.woff") format("woff"), url("chrome-extension://moombeodfomdpjnpocobemoiaemednkg/fonts/element-icons.ttf ") format("truetype"); }
</style></defs><path d="M1.6 0v201.6h510.4V0H1.6z m241.6 166.4h-208V30.4h209.6v136h-1.6z m240 0H273.6V30.4h209.6v136z" fill="#040000" p-id="2309"></path><path d="M102.4 315.2v201.6h510.4V315.2H102.4z m243.2 168H134.4v-136h209.6c1.6 0 1.6 136 1.6 136z m240 0H374.4v-136h209.6c1.6 0 1.6 136 1.6 136z" fill="#DD3131" p-id="2310"></path><path d="M0 646.4V1024H513.6V646.4H0z m238.4 339.2H36.8V848h201.6v137.6z m0-166.4H36.8v-137.6h201.6v137.6z m240 166.4H276.8V848h201.6v137.6z m0-166.4H276.8v-137.6h201.6v137.6z" fill="#040000" p-id="2311"></path><path d="M1017.6 628.8c-51.2-46.4-276.8-272-350.4-299.2-51.2-16-84.8-36.8-84.8-72 0-33.6 28.8-60.8 62.4-60.8 100.8 0 398.4 454.4 372.8 432z" fill="#CF3331" p-id="2312"></path><path d="M1024 201.6c-91.2 81.6-291.2 275.2-316.8 348.8-17.6 51.2-40 86.4-73.6 86.4s-38.4-25.6-38.4-59.2c0-100.8 452.8-398.4 428.8-376z" fill="#CF3331" p-id="2313"></path></svg>