<?xml version="1.0" standalone="no"?><!DOCTYPE svg PUBLIC "-//W3C//DTD SVG 1.1//EN" "http://www.w3.org/Graphics/SVG/1.1/DTD/svg11.dtd"><svg t="1592793268187" class="icon" viewBox="0 0 1024 1024" version="1.1" xmlns="http://www.w3.org/2000/svg" p-id="3090" xmlns:xlink="http://www.w3.org/1999/xlink" width="16" height="16"><defs><style type="text/css">@font-face { font-family: element-icons; src: url("chrome-extension://moombeodfomdpjnpocobemoiaemednkg/fonts/element-icons.woff") format("woff"), url("chrome-extension://moombeodfomdpjnpocobemoiaemednkg/fonts/element-icons.ttf ") format("truetype"); }
</style></defs><path d="M156 0.9h714.8C955.4 0.9 1024 69.5 1024 154.1v714.8c0 84.6-68.6 153.2-153.2 153.2H156c-84.6 0-153.2-68.6-153.2-153.2V154.1C2.8 69.5 71.4 0.9 156 0.9z m0 51.1C99.6 52 53.9 97.7 53.9 154.1v714.8C53.9 925.3 99.6 971 156 971h714.8c56.4 0 102.1-45.7 102.1-102.1V154.1C972.9 97.7 927.2 52 870.8 52H156z" fill="#C2C2C2" p-id="3091"></path><path d="M2.8 307.3H1024v51.1H2.8z" fill="#C2C2C2" p-id="3092"></path><path d="M309.2 52h51.1v612.7h-51.1zM666.6 52h51.1v612.7h-51.1z" fill="#C2C2C2" p-id="3093"></path><path d="M411.3 792.3h204.2v51.1H411.3z" fill="#000" p-id="3094"></path><path d="M487.9 715.7H539v204.2h-51.1z" fill="#000" p-id="3095"></path><path d="M2.8 613.6H1024v255.3c0 84.6-68.6 153.2-153.2 153.2H156c-84.6 0-153.2-68.6-153.2-153.2V613.6z m51.1 51.1v204.2C53.9 925.3 99.6 971 156 971h714.8c56.4 0 102.1-45.7 102.1-102.1V664.7h-919z" fill="#000" p-id="3096"></path></svg>
