<?xml version="1.0" standalone="no"?><!DOCTYPE svg PUBLIC "-//W3C//DTD SVG 1.1//EN" "http://www.w3.org/Graphics/SVG/1.1/DTD/svg11.dtd"><svg t="1592793152124" class="icon" viewBox="0 0 1024 1024" version="1.1" xmlns="http://www.w3.org/2000/svg" p-id="2446" xmlns:xlink="http://www.w3.org/1999/xlink" width="64" height="64"><defs><style type="text/css">@font-face { font-family: element-icons; src: url("chrome-extension://moombeodfomdpjnpocobemoiaemednkg/fonts/element-icons.woff") format("woff"), url("chrome-extension://moombeodfomdpjnpocobemoiaemednkg/fonts/element-icons.ttf ") format("truetype"); }
</style></defs><path d="M685.31677 597.863354h200.347826V90.63354H685.31677v507.229814z m30.21118-267.130435v-206.708074h135.15528v208.298136h-135.15528z m0 238.509317V360.944099h135.15528v208.298137h-135.15528z" fill="#D03432" p-id="2447"></path><path d="M171.726708 510.409938h375.254658V0H171.726708V510.409938z m201.937888-273.490683V36.571429h136.745342v200.347826h-136.745342z m-166.956521 0V36.571429h136.745341v200.347826h-136.745341z m166.956521 236.919254V273.490683h136.745342v200.347826h-136.745342z m-166.956521 0V273.490683h136.745341v200.347826h-136.745341z" fill="#040000" p-id="2448"></path><path d="M3.180124 510.409938h375.254659V0H3.180124V510.409938z m201.937888-273.490683V36.571429h136.745342v200.347826h-136.745342z m-166.956521 0V36.571429h136.745341v200.347826H38.161491z m166.956521 236.919254V273.490683h136.745342v200.347826h-136.745342z m-166.956521 0V273.490683h136.745341v200.347826H38.161491z" fill="#040000" p-id="2449"></path><path d="M995.378882 1014.459627c-50.881988-46.111801-275.080745-270.310559-348.223602-297.341615-50.881988-15.900621-84.273292-36.571429-84.273292-71.552795 0-33.391304 28.621118-60.42236 62.012422-60.42236 100.173913 0 394.335404 451.57764 370.484472 429.31677z" fill="#D03432" p-id="2450"></path><path d="M1001.73913 591.503106C911.10559 672.596273 712.347826 864.993789 686.906832 938.136646c-17.490683 50.881988-39.751553 85.863354-73.142857 85.863354S575.602484 996.968944 575.602484 963.57764c-1.590062-100.173913 448.397516-394.335404 426.136646-372.074534z" fill="#D03432" p-id="2451"></path></svg>