<?xml version="1.0" standalone="no"?><!DOCTYPE svg PUBLIC "-//W3C//DTD SVG 1.1//EN" "http://www.w3.org/Graphics/SVG/1.1/DTD/svg11.dtd"><svg t="1592793205779" class="icon" viewBox="0 0 1025 1024" version="1.1" xmlns="http://www.w3.org/2000/svg" p-id="2584" width="16.015625" height="16" xmlns:xlink="http://www.w3.org/1999/xlink"><defs><style type="text/css">@font-face { font-family: element-icons; src: url("chrome-extension://moombeodfomdpjnpocobemoiaemednkg/fonts/element-icons.woff") format("woff"), url("chrome-extension://moombeodfomdpjnpocobemoiaemednkg/fonts/element-icons.ttf ") format("truetype"); }
</style></defs><path d="M359.754074 308.189324h613.480629v51.165024H359.754074zM359.754074 666.044696h613.480629v51.165024H359.754074z" fill="#C2C2C2" p-id="2585"></path><path d="M666.444423 52.663999h51.165024v920.170977h-51.165024z" fill="#C2C2C2" p-id="2586"></path><path d="M180.876354 487.166976v-76.647604h51.165024v76.647604h76.647604v51.165024h-76.647604v76.647604H180.876354v-76.647604h-76.647604v-51.165024H180.876354z" fill="#000" p-id="2587"></path><path d="M155.293842 1.498975h715.710745C955.646726 1.498975 1024.299795 70.152045 1024.299795 154.894115v715.710745c0 84.742071-68.653069 153.39514-153.39514 153.39514H155.293842C70.551771 1024 1.898702 955.346931 1.898702 870.60486V154.894115C1.898702 70.152045 70.551771 1.498975 155.293842 1.498975z m0 51.165024C98.832439 52.663999 53.063726 98.432712 53.063726 154.894115v715.710745c0 56.461403 45.768713 102.230116 102.230116 102.230116h715.710745c56.461403 0 102.230116-45.768713 102.230116-102.230116V154.894115c0-56.461403-45.768713-102.230116-102.230116-102.230116H155.293842z" fill="#C2C2C2" p-id="2588"></path><path d="M410.819167 1023.900068V1.498975H155.293842C70.551771 1.498975 1.898702 70.152045 1.898702 154.894115v715.710745c0 84.742071 68.653069 153.39514 153.39514 153.39514h255.525325zM359.754074 972.735044H155.293842c-56.461403 0-102.230116-45.768713-102.230116-102.230116V154.894115c0-56.461403 45.768713-102.230116 102.230116-102.230116H359.754074v920.071045z" fill="#000" p-id="2589"></path></svg>
