<?xml version="1.0" standalone="no"?><!DOCTYPE svg PUBLIC "-//W3C//DTD SVG 1.1//EN" "http://www.w3.org/Graphics/SVG/1.1/DTD/svg11.dtd"><svg t="1589437191836" class="icon" viewBox="0 0 1077 1024" version="1.1" xmlns="http://www.w3.org/2000/svg" p-id="2666" xmlns:xlink="http://www.w3.org/1999/xlink" width="67.3125" height="64"><defs><style type="text/css">@font-face { font-family: element-icons; src: url("chrome-extension://moombeodfomdpjnpocobemoiaemednkg/fonts/element-icons.woff") format("woff"), url("chrome-extension://moombeodfomdpjnpocobemoiaemednkg/fonts/element-icons.ttf ") format("truetype"); }
</style></defs><path d="M604.645053 94.315789v50.553264H84.237474v788.156631h909.473684V470.770526h50.499368v474.974316a37.888 37.888 0 0 1-37.888 37.888H71.572211a37.888 37.888 0 0 1-37.888-37.888V132.203789c0-20.911158 16.976842-37.888 37.888-37.888h533.018947z" fill="#000000" fill-opacity=".65" p-id="2667"></path><path d="M720.842105 470.716632v189.493894h272.869053V700.631579h-272.869053v232.448h-40.421052V700.631579h-282.947369v232.448h-40.421052V700.631579H84.183579v-40.421053h272.869053v-242.526315H84.183579V377.263158h272.869053V144.815158h40.421052V377.263158h207.171369v40.421053H397.473684v242.526315h282.947369V470.716632z" fill="#000000" fill-opacity=".5" p-id="2668"></path><path d="M840.003368 182.002526A1532.874105 1532.874105 0 0 1 1043.779368 41.121684a3044.244211 3044.244211 0 0 0-180.439579 166.642527 1505.226105 1505.226105 0 0 1 173.002106 241.448421 3068.658526 3068.658526 0 0 0-200.434527-213.638737l-17.623579 18.162526c-56.912842 59.284211-103.046737 116.089263-138.401684 170.415158-14.336 18.162526-29.049263 22.312421-43.978105 12.395789-11.533474-15.737263-10.078316-31.797895 4.311579-48.128 30.827789-43.978105 73.997474-92.16 129.455158-144.545684 12.557474-11.856842 25.330526-23.444211 38.480842-34.869895-53.679158-50.176-105.256421-91.405474-154.839579-123.634526-18.162526-14.389895-22.312421-29.049263-12.395789-44.032 15.737263-11.479579 31.797895-10.078316 48.128 4.311579 43.978105 30.827789 92.16 73.997474 144.545684 129.509053l6.413473 6.844631z" fill="#FF4042" p-id="2669"></path></svg>